<svg xmlns="http://www.w3.org/2000/svg" width="1024" height="1024" viewBox="0 0 1024 1024">
<defs>
  <linearGradient id="paper" x1="0" y1="0" x2="0" y2="1">
    <stop offset="0" stop-color="#FBF8F1"/>
    <stop offset="1" stop-color="#EDE7DA"/>
  </linearGradient>
  <linearGradient id="ochre" x1="0" y1="0" x2="0" y2="1">
    <stop offset="0" stop-color="#B5764F"/>
    <stop offset="1" stop-color="#855030"/>
  </linearGradient>
</defs>
<rect x="100" y="100" width="824" height="824" rx="186" fill="url(#paper)"/><rect x="128" y="128" width="768" height="768" rx="160" fill="none" stroke="#252420" stroke-opacity="0.16" stroke-width="4"/><circle cx="512" cy="512" r="300" fill="none" stroke="#252420" stroke-width="18"/><line x1="582.4" y1="249.3" x2="586.5" y2="233.8" stroke="#5C564C" stroke-width="5" stroke-linecap="round"/><line x1="648.0" y1="276.4" x2="656.0" y2="262.6" stroke="#5C564C" stroke-width="5" stroke-linecap="round"/><line x1="694.4" y1="329.6" x2="715.6" y2="308.4" stroke="#5C564C" stroke-width="8" stroke-linecap="round"/><line x1="747.6" y1="376.0" x2="761.4" y2="368.0" stroke="#5C564C" stroke-width="5" stroke-linecap="round"/><line x1="774.7" y1="441.6" x2="790.2" y2="437.5" stroke="#5C564C" stroke-width="5" stroke-linecap="round"/><line x1="774.7" y1="582.4" x2="790.2" y2="586.5" stroke="#5C564C" stroke-width="5" stroke-linecap="round"/><line x1="747.6" y1="648.0" x2="761.4" y2="656.0" stroke="#5C564C" stroke-width="5" stroke-linecap="round"/><line x1="694.4" y1="694.4" x2="715.6" y2="715.6" stroke="#5C564C" stroke-width="8" stroke-linecap="round"/><line x1="648.0" y1="747.6" x2="656.0" y2="761.4" stroke="#5C564C" stroke-width="5" stroke-linecap="round"/><line x1="582.4" y1="774.7" x2="586.5" y2="790.2" stroke="#5C564C" stroke-width="5" stroke-linecap="round"/><line x1="441.6" y1="774.7" x2="437.5" y2="790.2" stroke="#5C564C" stroke-width="5" stroke-linecap="round"/><line x1="376.0" y1="747.6" x2="368.0" y2="761.4" stroke="#5C564C" stroke-width="5" stroke-linecap="round"/><line x1="329.6" y1="694.4" x2="308.4" y2="715.6" stroke="#5C564C" stroke-width="8" stroke-linecap="round"/><line x1="276.4" y1="648.0" x2="262.6" y2="656.0" stroke="#5C564C" stroke-width="5" stroke-linecap="round"/><line x1="249.3" y1="582.4" x2="233.8" y2="586.5" stroke="#5C564C" stroke-width="5" stroke-linecap="round"/><line x1="249.3" y1="441.6" x2="233.8" y2="437.5" stroke="#5C564C" stroke-width="5" stroke-linecap="round"/><line x1="276.4" y1="376.0" x2="262.6" y2="368.0" stroke="#5C564C" stroke-width="5" stroke-linecap="round"/><line x1="329.6" y1="329.6" x2="308.4" y2="308.4" stroke="#5C564C" stroke-width="8" stroke-linecap="round"/><line x1="376.0" y1="276.4" x2="368.0" y2="262.6" stroke="#5C564C" stroke-width="5" stroke-linecap="round"/><line x1="441.6" y1="249.3" x2="437.5" y2="233.8" stroke="#5C564C" stroke-width="5" stroke-linecap="round"/><polygon points="646.4,377.6 530.4,445.5 512,512" fill="#5C564C"/><polygon points="646.4,377.6 578.5,493.6 512,512" fill="#8A8377"/><polygon points="646.4,646.4 578.5,530.4 512,512" fill="#5C564C"/><polygon points="646.4,646.4 530.4,578.5 512,512" fill="#8A8377"/><polygon points="377.6,646.4 493.6,578.5 512,512" fill="#5C564C"/><polygon points="377.6,646.4 445.5,530.4 512,512" fill="#8A8377"/><polygon points="377.6,377.6 445.5,493.6 512,512" fill="#5C564C"/><polygon points="377.6,377.6 493.6,445.5 512,512" fill="#8A8377"/><polygon points="794.0,512.0 586.0,466.0 512,512" fill="#252420"/><polygon points="794.0,512.0 586.0,558.0 512,512" fill="#3B3830"/><polygon points="512.0,794.0 558.0,586.0 512,512" fill="#252420"/><polygon points="512.0,794.0 466.0,586.0 512,512" fill="#3B3830"/><polygon points="230.0,512.0 438.0,558.0 512,512" fill="#252420"/><polygon points="230.0,512.0 438.0,466.0 512,512" fill="#3B3830"/><polygon points="512.0,220.0 464.0,438.0 512,512" fill="#855030"/><polygon points="512.0,220.0 560.0,438.0 512,512" fill="#A86B47"/><circle cx="512" cy="512" r="34" fill="#252420"/><circle cx="512" cy="512" r="15" fill="#FBF8F1"/></svg>